<svg width="23.973633" height="19.764648" viewBox="0 0 23.9736 19.7646" fill="none" xmlns="http://www.w3.org/2000/svg" xmlns:xlink="http://www.w3.org/1999/xlink">
	<desc>
			Created with Pixso.
	</desc>
	<defs/>
	<path id="Vector" d="M23.9736 2.34778C23.0928 2.73376 22.1328 3.01147 21.1445 3.11963C22.1709 2.5011 22.9395 1.52393 23.3057 0.371338C22.3428 0.952515 21.2881 1.36011 20.1885 1.57593C19.7285 1.07715 19.1729 0.679932 18.5547 0.408813C17.9375 0.137695 17.2715 -0.00146484 16.5986 0C13.876 0 11.6855 2.23962 11.6855 4.98792C11.6855 5.3739 11.7324 5.75989 11.8066 6.1311C7.73047 5.91479 4.09375 3.93835 1.67676 0.912231C1.23633 1.67566 1.00586 2.54492 1.00879 3.42957C1.00879 5.16052 1.87598 6.68665 3.19824 7.58423C2.41895 7.5531 1.65723 7.33569 0.976562 6.94983L0.976562 7.01123C0.976562 9.43506 2.66504 11.4436 4.91504 11.9056C4.49316 12.017 4.05859 12.074 3.62207 12.0752C3.30176 12.0752 2.99902 12.043 2.69434 11.9991C3.31641 13.9756 5.12891 15.4113 7.28613 15.458C5.59766 16.8 3.4834 17.5895 1.1875 17.5895C0.775391 17.5895 0.394531 17.5748 0 17.5281C2.17773 18.946 4.7627 19.7646 7.5459 19.7646C16.5811 19.7646 21.5254 12.1687 21.5254 5.57568C21.5254 5.35925 21.5254 5.14294 21.5107 4.92651C22.4668 4.21606 23.3057 3.33606 23.9736 2.34778Z" fill="#21A6DF" fill-opacity="1.000000" fill-rule="nonzero"/>
</svg>
