<svg width="72.000000" height="72.002930" viewBox="0 0 72 72.0029" fill="none" xmlns="http://www.w3.org/2000/svg" xmlns:xlink="http://www.w3.org/1999/xlink">
	<desc>
			Created with Pixso.
	</desc>
	<defs/>
	<path id="Vector" d="M55.7354 38.9946C55.3838 38.6426 54.9668 38.3633 54.5068 38.1726C54.0479 37.9819 53.5547 37.884 53.0576 37.884C52.5596 37.884 52.0674 37.9819 51.6074 38.1726C51.1475 38.3633 50.7305 38.6426 50.3789 38.9946L44.3398 45.0334C41.541 44.2 36.3164 42.3057 33.0049 38.9946C29.6943 35.6836 27.7998 30.4595 26.9668 27.6599L33.0049 21.6211C33.3574 21.2695 33.6367 20.8521 33.8271 20.3926C34.0176 19.9329 34.1162 19.4402 34.1162 18.9426C34.1162 18.4451 34.0176 17.9526 33.8271 17.4929C33.6367 17.0334 33.3574 16.616 33.0049 16.2644L17.8516 1.11084C17.5 0.758545 17.083 0.479248 16.623 0.288818C16.1631 0.0981445 15.6709 0 15.1729 0C14.6758 0 14.1836 0.0981445 13.7236 0.288818C13.2637 0.479248 12.8467 0.758545 12.4951 1.11084L2.2207 11.3848C0.78125 12.8245 -0.0292969 14.802 0.000976562 16.8213C0.0878906 22.2158 1.5166 40.9534 16.2832 55.7205C31.0508 70.4875 49.7881 71.9121 55.1865 72.0029L55.292 72.0029C57.293 72.0029 59.1836 71.2151 60.6152 69.783L70.8896 59.5088C71.2412 59.1572 71.5205 58.7397 71.7109 58.2803C71.9023 57.8206 72 57.3279 72 56.8306C72 56.333 71.9023 55.8403 71.7109 55.3806C71.5205 54.9211 71.2412 54.5037 70.8896 54.1521L55.7354 38.9946ZM55.2549 64.4224C50.5264 64.3428 34.3506 63.0737 21.6396 50.3599C8.88867 37.6082 7.65332 21.3748 7.57715 16.7417L15.1729 9.146L24.9697 18.9426L20.0713 23.8411C19.626 24.2861 19.2988 24.835 19.1191 25.4382C18.9395 26.0415 18.9121 26.6799 19.041 27.2961C19.1318 27.7317 21.3564 38.0627 27.6445 44.3516C33.9336 50.6401 44.2646 52.864 44.7002 52.9548C45.3154 53.0874 45.9551 53.0627 46.5586 52.8833C47.1631 52.7039 47.7119 52.3755 48.1553 51.9282L53.0576 47.0298L62.8545 56.8267L55.2549 64.4224Z" fill="#0D5C63" fill-opacity="1.000000" fill-rule="nonzero"/>
</svg>
