<svg width="69.146484" height="72.000000" viewBox="0 0 69.1465 72" fill="none" xmlns="http://www.w3.org/2000/svg" xmlns:xlink="http://www.w3.org/1999/xlink">
	<desc>
			Created with Pixso.
	</desc>
	<defs/>
	<path id="Vector" d="M68.3486 0.873779C67.959 0.470703 67.4678 0.19165 66.9307 0.0695801C66.3945 -0.0527344 65.835 -0.0131836 65.3193 0.183594L1.86133 24.1824C1.31445 24.3984 0.842773 24.7822 0.510742 25.2832C0.177734 25.7842 0 26.3787 0 26.9873C0 27.5959 0.177734 28.1904 0.510742 28.6914C0.842773 29.1924 1.31445 29.5762 1.86133 29.7922L29.5527 41.3115L40.6289 70.1101C40.8369 70.6543 41.1934 71.1233 41.6553 71.459C42.1162 71.7949 42.6621 71.9829 43.2246 72C43.8076 71.9875 44.373 71.7917 44.8467 71.4382C45.3203 71.0847 45.6807 70.5903 45.8789 70.02L68.9541 4.02344C69.1504 3.49268 69.1982 2.91479 69.0908 2.35718C68.9834 1.79956 68.7266 1.28491 68.3486 0.873779ZM43.2246 60.6006L35.1768 39.6016L48.9941 25.2324L44.9268 21.0027L30.9941 35.4919L10.9189 27.0022L61.4834 8.01318L43.2246 60.6006Z" fill="#0D5C63" fill-opacity="1.000000" fill-rule="nonzero"/>
</svg>
