<svg width="32.000000" height="32.000000" viewBox="0 0 32 32" fill="none" xmlns="http://www.w3.org/2000/svg" xmlns:xlink="http://www.w3.org/1999/xlink">
	<desc>
			Created with Pixso.
	</desc>
	<defs>
		<clipPath id="clip964_17536">
			<rect id="icn settings .icn-md" width="32.000000" height="32.000000" fill="white" fill-opacity="0"/>
		</clipPath>
	</defs>
	<rect id="icn settings .icn-md" width="32.000000" height="32.000000" fill="#FFFFFF" fill-opacity="0"/>
	<g clip-path="url(#clip964_17536)">
		<path id="Vector" d="M18.2363 8.77148C17.7725 9.09302 17.25 9.31909 16.6973 9.43628C16.1455 9.55347 15.5752 9.55957 15.0215 9.4541C14.4668 9.34863 13.9385 9.13379 13.4688 8.82227C12.998 8.5105 12.5938 8.1084 12.2803 7.63916C11.9678 7.16968 11.751 6.64258 11.6426 6.08862C11.5352 5.53467 11.5391 4.9646 11.6543 4.41211C11.7695 3.85962 11.9932 3.33569 12.3135 2.87061C12.6328 2.40552 13.042 2.00903 13.5166 1.70386C14.4541 1.08472 15.5986 0.861816 16.7002 1.08398C17.8008 1.30615 18.7695 1.95508 19.3936 2.88916C20.0176 3.82324 20.2461 4.96631 20.0303 6.0686C19.8135 7.1709 19.1699 8.14258 18.2393 8.77148L18.2363 8.77148ZM17.0576 3.47168C16.8262 3.30518 16.5635 3.18701 16.2852 3.12427C16.0068 3.06128 15.7197 3.05493 15.4385 3.10547C15.1582 3.15625 14.8906 3.2627 14.6523 3.41895C14.4141 3.5752 14.209 3.77759 14.0508 4.01465C13.8916 4.25146 13.7822 4.51782 13.7295 4.79785C13.6758 5.07788 13.6787 5.36572 13.7393 5.64453C13.7988 5.9231 13.915 6.18701 14.0791 6.42017C14.2432 6.65308 14.4521 6.85083 14.6943 7.00146C15.1621 7.28564 15.7217 7.37817 16.2559 7.26025C16.79 7.14233 17.2588 6.82251 17.5635 6.36792C17.8672 5.91309 17.9854 5.35864 17.8906 4.81934C17.7969 4.28027 17.498 3.79834 17.0576 3.47388L17.0576 3.47168ZM22.6035 3.5354C23.2168 3.12329 23.9541 2.9375 24.6885 3.0105C25.4238 3.0835 26.1104 3.4104 26.6309 3.93506C27.001 4.30859 27.2744 4.76709 27.4258 5.27075C27.5781 5.77441 27.6035 6.30762 27.502 6.82373C27.3994 7.33984 27.1729 7.82275 26.8398 8.23071C26.5078 8.63843 26.0801 8.95825 25.5957 9.1626C25.0137 9.40601 24.3711 9.47021 23.7529 9.34668C23.1338 9.22339 22.5654 8.91797 22.1211 8.46973C21.7871 8.13403 21.5312 7.72876 21.3721 7.28247C21.2139 6.83643 21.1553 6.36084 21.2012 5.88965C21.248 5.41821 21.3975 4.96313 21.6406 4.5564C21.8828 4.1499 22.2129 3.802 22.6055 3.5376L22.6035 3.5354ZM23.624 6.95679C23.8232 7.15552 24.0938 7.2666 24.375 7.26611C24.5146 7.26587 24.6523 7.23804 24.7812 7.18433C24.9092 7.13086 25.0264 7.05225 25.125 6.95361C25.2236 6.85474 25.3008 6.73755 25.3545 6.60864C25.4072 6.47974 25.4346 6.34155 25.4346 6.20215C25.4336 6.06274 25.4062 5.9248 25.3525 5.79614C25.2988 5.66748 25.2207 5.55054 25.1221 5.45215C24.9238 5.25317 24.6562 5.13892 24.376 5.13354C24.2354 5.1333 24.0967 5.16064 23.9678 5.21436C23.8379 5.26807 23.7207 5.34692 23.6221 5.44629C23.5225 5.54565 23.4443 5.66382 23.3916 5.79346C23.3389 5.92334 23.3125 6.06226 23.3135 6.20239C23.3145 6.48535 23.4258 6.75684 23.624 6.95898L23.624 6.95679ZM5.6543 25.3975L9.50098 25.3975L9.50098 27.5332L5.6543 27.5332C4.98145 27.5271 4.33789 27.2542 3.86523 26.7744C3.39062 26.293 3.125 25.644 3.12598 24.9683L3.12598 21.1221C2.83984 21.1125 2.55859 21.0449 2.29883 20.9238C2.04004 20.8025 1.80762 20.6299 1.61719 20.4165C1.41406 20.2112 1.25488 19.967 1.14941 19.6985C1.04297 19.4302 0.993164 19.1431 1.00098 18.8547L1.00098 14.2178C1.00684 13.2148 1.4043 12.2566 2.10547 11.5447C2.80469 10.8413 3.75098 10.4397 4.74121 10.4333L8.65039 10.4333C8.12305 11.0613 7.72656 11.7881 7.48242 12.571L4.74121 12.571C4.30957 12.5835 3.89941 12.7598 3.59375 13.064C3.29297 13.3728 3.125 13.7871 3.12598 14.2178L3.12598 18.9609L5.25098 18.9609L5.25098 24.9661C5.24609 25.0239 5.25293 25.0823 5.27148 25.1375C5.28906 25.1926 5.31836 25.2434 5.35742 25.2871C5.44238 25.353 5.54688 25.3901 5.6543 25.3933L5.6543 25.3975ZM21.167 11.5469C20.8193 11.1956 20.4053 10.9167 19.9502 10.7261C19.4941 10.5354 19.0049 10.4365 18.5107 10.4353L13.2412 10.4353C12.25 10.4434 11.3027 10.8428 10.6055 11.5469C9.9043 12.2585 9.50684 13.217 9.50098 14.22L9.50098 20.9731C9.49805 21.5532 9.71875 22.1118 10.1172 22.533C10.3076 22.7461 10.54 22.9185 10.7998 23.0398C11.0586 23.1609 11.3398 23.2285 11.626 23.2385L11.626 28.1748C11.624 28.5117 11.6885 28.8457 11.8164 29.1577C11.9434 29.4695 12.1318 29.7529 12.3691 29.9917C12.752 30.3489 13.2344 30.5803 13.751 30.6548L18.001 30.6548C18.5986 30.5764 19.1465 30.2798 19.5381 29.822C19.9307 29.3643 20.1396 28.7776 20.126 28.1748L20.126 23.2363C20.4121 23.2268 20.6934 23.1594 20.9521 23.0381C21.2119 22.9167 21.4434 22.7444 21.6348 22.531C21.8369 22.3259 21.9961 22.082 22.1016 21.814C22.208 21.5459 22.2588 21.2593 22.251 20.9712L22.251 14.2178C22.252 13.2195 21.8633 12.2603 21.167 11.5447L21.167 11.5469ZM20.126 21.0774L18.001 21.0774L18.001 28.1748C17.999 28.2869 17.9531 28.3936 17.873 28.4724C17.8369 28.5154 17.791 28.5491 17.7393 28.5713C17.6875 28.5935 17.6318 28.6033 17.5762 28.5999L14.1543 28.5999C14.0439 28.5947 13.9385 28.5483 13.8594 28.4697C13.7812 28.3911 13.7344 28.2859 13.7295 28.1748L13.7295 21.0774L11.626 21.0774L11.626 14.2178C11.626 13.7866 11.7939 13.3721 12.0938 13.064C12.3994 12.7598 12.8096 12.5835 13.2412 12.571L18.5107 12.571C18.833 12.5767 19.1455 12.6763 19.4121 12.8574C19.6777 13.0386 19.8857 13.2937 20.0088 13.5911C20.0898 13.79 20.1299 14.0032 20.126 14.2178L20.126 21.0774ZM26.0967 27.531L22.251 27.531L22.251 25.3955L26.0762 25.3955C26.1836 25.3923 26.2881 25.3552 26.373 25.2891C26.416 25.2473 26.4492 25.197 26.4717 25.1414C26.4932 25.0857 26.5039 25.0259 26.501 24.9661L26.501 18.9609L28.626 18.9609L28.626 14.2178C28.627 13.7871 28.459 13.3728 28.1582 13.064C27.8525 12.7598 27.4424 12.5835 27.0107 12.571L24.2695 12.571C24.0254 11.7881 23.6279 11.0613 23.1006 10.4333L27.0107 10.4333C28.001 10.4424 28.9482 10.8418 29.6455 11.5447C30.3467 12.2566 30.7441 13.2148 30.751 14.2178L30.751 18.8547C30.751 19.4348 30.5322 19.9915 30.1367 20.4124C29.7412 20.8352 29.2021 21.0879 28.626 21.1199L28.626 24.9661C28.626 25.644 28.3604 26.2922 27.8867 26.7725C27.4141 27.2522 26.7705 27.5249 26.0967 27.531ZM7.37598 2.99585C6.74316 2.99512 6.125 3.18311 5.60059 3.53589C5.07617 3.88892 4.66797 4.39038 4.43066 4.97632C4.19043 5.56201 4.12793 6.20532 4.25098 6.82617C4.375 7.44702 4.67773 8.01807 5.12305 8.46753C5.56836 8.91675 6.1377 9.2229 6.75781 9.34717C7.37793 9.47119 8.02148 9.40771 8.60547 9.16455C9.18945 8.92139 9.6875 8.50977 10.0361 7.98218C10.3848 7.45459 10.5684 6.83496 10.5635 6.20239C10.5635 5.35229 10.2275 4.53638 9.62793 3.93506C9.33301 3.6377 8.98242 3.40186 8.5957 3.24072C8.20898 3.07935 7.79492 2.99634 7.37598 2.99585ZM7.37598 7.27124C7.23535 7.27148 7.09668 7.24414 6.96777 7.19043C6.83789 7.13672 6.7207 7.05786 6.62207 6.9585C6.52246 6.85913 6.44434 6.74097 6.3916 6.61133C6.33887 6.48145 6.3125 6.34253 6.31348 6.20239C6.31348 5.92017 6.42578 5.64966 6.625 5.44946C6.82324 5.24927 7.09375 5.13574 7.37598 5.13354C7.65723 5.13843 7.92578 5.25293 8.12402 5.45239C8.32227 5.6521 8.43457 5.9209 8.43848 6.20239C8.4375 6.48462 8.32617 6.75513 8.12695 6.95532C7.92773 7.15552 7.6582 7.26904 7.37598 7.27124Z" fill="#FF7B47" fill-opacity="1.000000" fill-rule="evenodd"/>
	</g>
</svg>
