<svg width="32.447266" height="25.938232" viewBox="0 0 32.4473 25.9382" fill="none" xmlns="http://www.w3.org/2000/svg" xmlns:xlink="http://www.w3.org/1999/xlink">
	<desc>
			Created with Pixso.
	</desc>
	<defs/>
	<path id="Vector" d="M29.8154 7.3645L27.8164 10.3708C28.7803 12.2932 29.2529 14.4248 29.1904 16.5747C29.1279 18.7244 28.5332 20.825 27.459 22.6882L4.93652 22.6882C3.54102 20.2673 2.96289 17.4609 3.28711 14.6853C3.6123 11.9097 4.82324 9.31274 6.73926 7.27905C8.65625 5.24561 11.1777 3.88379 13.9287 3.39575C16.6807 2.90771 19.5166 3.31934 22.0156 4.56958L25.0215 2.5708C21.9609 0.608154 18.3301 -0.27124 14.7109 0.072998C11.0908 0.41748 7.69141 1.96582 5.05566 4.47046C2.4209 6.9751 0.701172 10.2913 0.172852 13.8887C-0.355469 17.4858 0.337891 21.1565 2.1416 24.3132C2.4248 24.8044 2.83203 25.2129 3.32324 25.498C3.81348 25.7832 4.36914 25.9348 4.93652 25.9382L27.4434 25.9382C28.0156 25.9407 28.5791 25.7915 29.0752 25.5061C29.5713 25.2207 29.9844 24.8093 30.2705 24.3132C31.7676 21.7197 32.5186 18.7627 32.4414 15.769C32.3643 12.7751 31.4609 9.86108 29.832 7.34839L29.8154 7.3645ZM13.9062 18.4795C14.209 18.7817 14.5674 19.0215 14.9619 19.1851C15.3564 19.3486 15.7793 19.4326 16.2061 19.4326C16.6328 19.4326 17.0557 19.3486 17.4502 19.1851C17.8447 19.0215 18.2031 18.7817 18.5059 18.4795L27.7031 4.68335L13.9062 13.8809C13.6045 14.1826 13.3652 14.541 13.2012 14.9355C13.0381 15.3301 12.9531 15.7532 12.9531 16.1802C12.9531 16.6072 13.0381 17.0303 13.2012 17.4248C13.3652 17.8193 13.6045 18.1777 13.9062 18.4795Z" fill="#FF7B47" fill-opacity="1.000000" fill-rule="nonzero"/>
</svg>
