<svg viewBox="0 0 48 40.709" xmlns="http://www.w3.org/2000/svg" xmlns:xlink="http://www.w3.org/1999/xlink" width="48.000000" height="40.708984" fill="none">
	<rect id="carbon:tool-box" width="48.000000" height="40.708862" x="0.000000" y="0.000000" fill="rgb(255,255,255)" fill-opacity="0" />
	<path id="Vector" d="M42.5886 8.52554L37.519 8.52554L37.519 3.45592C37.519 2.55955 37.1629 1.6999 36.5291 1.06608C35.8953 0.432251 35.0356 0.0761719 34.1393 0.0761719L13.8608 0.0761719C12.9644 0.0761719 12.1048 0.432251 11.4709 1.06608C10.8371 1.6999 10.481 2.55955 10.481 3.45592L10.481 8.52554L5.41142 8.52554C4.06687 8.52554 2.77739 9.05966 1.82665 10.0104C0.875916 10.9611 0.341797 12.2506 0.341797 13.5952L0.341797 37.2534C0.341797 38.1498 0.697876 39.0094 1.3317 39.6432C1.96553 40.2771 2.82518 40.6331 3.72154 40.6331L44.2785 40.6331C45.1749 40.6331 46.0345 40.2771 46.6683 39.6432C47.3022 39.0094 47.6582 38.1498 47.6582 37.2534L47.6582 13.5952C47.6582 12.2506 47.1241 10.9611 46.1734 10.0104C45.2227 9.05966 43.9332 8.52554 42.5886 8.52554ZM13.8608 3.45592L34.1393 3.45592L34.1393 8.52554L13.8608 8.52554L13.8608 3.45592ZM44.2785 37.2534L3.72154 37.2534L3.72154 22.0445L17.2405 22.0445L17.2405 30.4939L30.7595 30.4939L30.7595 22.0445L44.2785 22.0445L44.2785 37.2534ZM20.6203 22.0445L27.3798 22.0445L27.3798 27.1141L20.6203 27.1141L20.6203 22.0445ZM3.72154 18.6648L3.72154 13.5952C3.72154 13.147 3.89958 12.7172 4.2165 12.4002C4.53341 12.0833 4.96323 11.9053 5.41142 11.9053L42.5886 11.9053C43.0368 11.9053 43.4666 12.0833 43.7836 12.4002C44.1005 12.7172 44.2785 13.147 44.2785 13.5952L44.2785 18.6648L3.72154 18.6648Z" fill="rgb(13,92,99)" fill-rule="nonzero" />
</svg>
