<svg viewBox="0 0 48 37.9199" xmlns="http://www.w3.org/2000/svg" xmlns:xlink="http://www.w3.org/1999/xlink" width="48.000000" height="37.919922" fill="none">
	<rect id="carbon:notebook" width="48.000000" height="37.919998" x="0.000000" y="0.000000" fill="rgb(255,255,255)" fill-opacity="0" />
	<path id="Vector" d="M29.1416 8.62402L41.1395 8.62402L41.1395 12.0693L29.1416 12.0693L29.1416 8.62402Z" fill="rgb(255,255,255)" fill-rule="nonzero" />
	<path id="Vector" d="M29.1416 17.2373L41.1395 17.2373L41.1395 20.6826L29.1416 20.6826L29.1416 17.2373Z" fill="rgb(255,255,255)" fill-rule="nonzero" />
	<path id="Vector" d="M29.1416 25.8506L41.1395 25.8506L41.1395 29.2959L29.1416 29.2959L29.1416 25.8506Z" fill="rgb(255,255,255)" fill-rule="nonzero" />
	<path id="Vector" d="M44.5674 0.0112305L3.43187 0.0112305C2.52299 0.0121426 1.65161 0.375424 1.00893 1.02135C0.366264 1.66727 0.00481376 2.54307 0.00390625 3.45655L0.00390625 34.4644C0.00481376 35.3779 0.366264 36.2537 1.00893 36.8996C1.65161 37.5455 2.52299 37.9088 3.43187 37.9097L44.5674 37.9097C45.4761 37.9084 46.3473 37.5449 46.9898 36.8991C47.6324 36.2533 47.994 35.3777 47.9953 34.4644L47.9953 3.45655C47.9944 2.54307 47.633 1.66727 46.9903 1.02135C46.3477 0.375424 45.4763 0.0121426 44.5674 0.0112305ZM3.43187 3.45655L22.2856 3.45655L22.2856 34.4644L3.43187 34.4644L3.43187 3.45655ZM25.7136 34.4644L25.7136 3.45655L44.5674 3.45655L44.5708 34.4644L25.7136 34.4644Z" fill="rgb(255,255,255)" fill-rule="nonzero" />
</svg>
